<?xml version="1.0" encoding="UTF-8"?>
<svg xmlns="http://www.w3.org/2000/svg" width="408" height="306" viewBox="0 0 408 306" role="img" aria-labelledby="figure-title figure-desc" data-axis-min="-20000.0" data-axis-max="20000.0">
<title id="figure-title">Observer resource effect: active_counter / latency ms</title>
<desc id="figure-desc">Small multiples show paired task-level active-minus-clean effects by model and benchmark. A vertical zero line marks no observer effect.</desc>
<defs><style>
      text { font-family: Inter, ui-sans-serif, system-ui, -apple-system, sans-serif; fill: #222222; }
      .title { font-size: 20px; font-weight: 700; }
      .subtitle { font-size: 12px; fill: #666666; }
      .panel-title { font-size: 14px; font-weight: 700; }
      .label { font-size: 11px; }
      .small { font-size: 10px; fill: #666666; }
      .axis { stroke: #222222; stroke-width: 1; fill: none; }
      .grid { stroke: #D9D9D9; stroke-width: 1; fill: none; }
      .zero-line { stroke: #222222; stroke-width: 1.6; stroke-dasharray: 5 4; fill: none; }
    </style></defs>
<text x="24" y="32" class="title">Observer resource effect: active_counter / latency ms</text>
<text x="24" y="52" class="subtitle">Paired task bootstrap; points are active minus clean, bars are confidence intervals.</text>
<text x="204.0" y="60" text-anchor="middle" class="panel-title">bfcl_multi_turn</text>
<line x1="136.00" y1="74" x2="136.00" y2="214" class="grid"/>
<text x="136.00" y="232" text-anchor="middle" class="small">-20000.0</text>
<line x1="192.50" y1="74" x2="192.50" y2="214" class="grid"/>
<text x="192.50" y="232" text-anchor="middle" class="small">-10000.0</text>
<line x1="249.00" y1="74" x2="249.00" y2="214" class="zero-line"/>
<text x="249.00" y="232" text-anchor="middle" class="small">+0.0</text>
<line x1="305.50" y1="74" x2="305.50" y2="214" class="grid"/>
<text x="305.50" y="232" text-anchor="middle" class="small">+10000.0</text>
<line x1="362.00" y1="74" x2="362.00" y2="214" class="grid"/>
<text x="362.00" y="232" text-anchor="middle" class="small">+20000.0</text>
<text x="128" y="94" text-anchor="end" class="label">gpt-5.6-luna <tspan class="small">n=20</tspan></text>
<line x1="279.03" y1="90" x2="343.72" y2="90" stroke="#0072B2" stroke-width="3"/>
<line x1="279.03" y1="85" x2="279.03" y2="95" stroke="#0072B2"/><line x1="343.72" y1="85" x2="343.72" y2="95" stroke="#0072B2"/>
<circle cx="308.29" cy="90" r="5" fill="#0072B2" stroke="white" stroke-width="1.5"><title>gpt-5.6-luna: +10494.5 [+5315.5, +16764.2]</title></circle>
<text x="128" y="128" text-anchor="end" class="label">gpt-5.6-terra <tspan class="small">n=20</tspan></text>
<line x1="281.20" y1="124" x2="309.78" y2="124" stroke="#0072B2" stroke-width="3"/>
<line x1="281.20" y1="119" x2="281.20" y2="129" stroke="#0072B2"/><line x1="309.78" y1="119" x2="309.78" y2="129" stroke="#0072B2"/>
<circle cx="295.87" cy="124" r="5" fill="#0072B2" stroke="white" stroke-width="1.5"><title>gpt-5.6-terra: +8296.2 [+5698.4, +10757.3]</title></circle>
<text x="128" y="162" text-anchor="end" class="label">gpt-oss-120b <tspan class="small">n=20</tspan></text>
<line x1="222.45" y1="158" x2="279.67" y2="158" stroke="#0072B2" stroke-width="3"/>
<line x1="222.45" y1="153" x2="222.45" y2="163" stroke="#0072B2"/><line x1="279.67" y1="153" x2="279.67" y2="163" stroke="#0072B2"/>
<circle cx="257.39" cy="158" r="5" fill="#0072B2" stroke="white" stroke-width="1.5"><title>gpt-oss-120b: +1484.8 [-4699.4, +5427.9]</title></circle>
<text x="128" y="196" text-anchor="end" class="label">qwen3p7-plus <tspan class="small">n=20</tspan></text>
<line x1="250.58" y1="192" x2="280.98" y2="192" stroke="#0072B2" stroke-width="3"/>
<line x1="250.58" y1="187" x2="250.58" y2="197" stroke="#0072B2"/><line x1="280.98" y1="187" x2="280.98" y2="197" stroke="#0072B2"/>
<circle cx="263.42" cy="192" r="5" fill="#0072B2" stroke="white" stroke-width="1.5"><title>qwen3p7-plus: +2552.5 [+280.3, +5660.3]</title></circle>
<line x1="136" y1="214" x2="362" y2="214" class="axis"/>
<text x="204.0" y="284" text-anchor="middle" class="label">Latency Ms difference (active carried − clean), milliseconds; positive is extra burden</text>
</svg>
