<?xml version="1.0" encoding="UTF-8"?>
<svg xmlns="http://www.w3.org/2000/svg" width="408" height="306" viewBox="0 0 408 306" role="img" aria-labelledby="figure-title figure-desc" data-axis-min="-0.02" data-axis-max="0.02">
<title id="figure-title">Observer resource effect: active_recompute / actual cost usd</title>
<desc id="figure-desc">Small multiples show paired task-level active-minus-clean effects by model and benchmark. A vertical zero line marks no observer effect.</desc>
<defs><style>
      text { font-family: Inter, ui-sans-serif, system-ui, -apple-system, sans-serif; fill: #222222; }
      .title { font-size: 20px; font-weight: 700; }
      .subtitle { font-size: 12px; fill: #666666; }
      .panel-title { font-size: 14px; font-weight: 700; }
      .label { font-size: 11px; }
      .small { font-size: 10px; fill: #666666; }
      .axis { stroke: #222222; stroke-width: 1; fill: none; }
      .grid { stroke: #D9D9D9; stroke-width: 1; fill: none; }
      .zero-line { stroke: #222222; stroke-width: 1.6; stroke-dasharray: 5 4; fill: none; }
    </style></defs>
<text x="24" y="32" class="title">Observer resource effect: active_recompute / actual cost usd</text>
<text x="24" y="52" class="subtitle">Paired task bootstrap; points are active minus clean, bars are confidence intervals.</text>
<text x="204.0" y="60" text-anchor="middle" class="panel-title">evolving_intent_gsm8k</text>
<line x1="136.00" y1="74" x2="136.00" y2="214" class="grid"/>
<text x="136.00" y="232" text-anchor="middle" class="small">-0.020000</text>
<line x1="192.50" y1="74" x2="192.50" y2="214" class="grid"/>
<text x="192.50" y="232" text-anchor="middle" class="small">-0.010000</text>
<line x1="249.00" y1="74" x2="249.00" y2="214" class="zero-line"/>
<text x="249.00" y="232" text-anchor="middle" class="small">+0.000000</text>
<line x1="305.50" y1="74" x2="305.50" y2="214" class="grid"/>
<text x="305.50" y="232" text-anchor="middle" class="small">+0.010000</text>
<line x1="362.00" y1="74" x2="362.00" y2="214" class="grid"/>
<text x="362.00" y="232" text-anchor="middle" class="small">+0.020000</text>
<text x="128" y="94" text-anchor="end" class="label">deepseek-v4-flash-0731 <tspan class="small">n=56</tspan></text>
<line x1="247.90" y1="90" x2="248.75" y2="90" stroke="#0072B2" stroke-width="3"/>
<line x1="247.90" y1="85" x2="247.90" y2="95" stroke="#0072B2"/><line x1="248.75" y1="85" x2="248.75" y2="95" stroke="#0072B2"/>
<circle cx="248.35" cy="90" r="5" fill="#0072B2" stroke="white" stroke-width="1.5"><title>deepseek-v4-flash-0731: -0.000116 [-0.000195, -0.000045]</title></circle>
<text x="128" y="128" text-anchor="end" class="label">gpt-5.6-luna <tspan class="small">n=56</tspan></text>
<line x1="256.90" y1="124" x2="258.00" y2="124" stroke="#0072B2" stroke-width="3"/>
<line x1="256.90" y1="119" x2="256.90" y2="129" stroke="#0072B2"/><line x1="258.00" y1="119" x2="258.00" y2="129" stroke="#0072B2"/>
<circle cx="257.47" cy="124" r="5" fill="#0072B2" stroke="white" stroke-width="1.5"><title>gpt-5.6-luna: +0.001499 [+0.001398, +0.001593]</title></circle>
<text x="128" y="162" text-anchor="end" class="label">gpt-5.6-terra <tspan class="small">n=56</tspan></text>
<line x1="328.59" y1="158" x2="337.57" y2="158" stroke="#0072B2" stroke-width="3"/>
<line x1="328.59" y1="153" x2="328.59" y2="163" stroke="#0072B2"/><line x1="337.57" y1="153" x2="337.57" y2="163" stroke="#0072B2"/>
<circle cx="333.15" cy="158" r="5" fill="#0072B2" stroke="white" stroke-width="1.5"><title>gpt-5.6-terra: +0.014894 [+0.014087, +0.015677]</title></circle>
<text x="128" y="196" text-anchor="end" class="label">gpt-oss-120b <tspan class="small">n=56</tspan></text>
<line x1="250.38" y1="192" x2="251.42" y2="192" stroke="#0072B2" stroke-width="3"/>
<line x1="250.38" y1="187" x2="250.38" y2="197" stroke="#0072B2"/><line x1="251.42" y1="187" x2="251.42" y2="197" stroke="#0072B2"/>
<circle cx="250.90" cy="192" r="5" fill="#0072B2" stroke="white" stroke-width="1.5"><title>gpt-oss-120b: +0.000337 [+0.000244, +0.000428]</title></circle>
<line x1="136" y1="214" x2="362" y2="214" class="axis"/>
<text x="204.0" y="284" text-anchor="middle" class="label">Actual Cost Usd difference (active carried − clean), USD; positive is extra burden</text>
</svg>
