<svg xmlns="http://www.w3.org/2000/svg" width="1500" height="850" viewBox="0 0 1500 850">
<title>Powered paired observer effects for active recomputation</title>
<style>text { font-family: 'Liberation Sans', Arial, sans-serif; }</style>
<rect x="0" y="0" width="1500" height="850" fill="#ffffff"/>
<text x="55" y="60" font-size="38" font-weight="700" text-anchor="start" fill="#17324d">Active observation usually reduces task success</text>
<text x="55" y="103" font-size="24" font-weight="400" text-anchor="start" fill="#536679">Paired active-recompute minus clean-arm success; whiskers are task-bootstrap 95% intervals</text>
<text x="55" y="143" font-size="21" font-weight="400" text-anchor="start" fill="#536679">Within each benchmark, models are sorted from the largest decrease to the largest increase</text>
<rect x="48" y="205" width="1404" height="75.7143" fill="#f5f9fc"/>
<rect x="48" y="280.714" width="1404" height="75.7143" fill="#f5f9fc"/>
<rect x="48" y="356.429" width="1404" height="75.7143" fill="#f5f9fc"/>
<rect x="48" y="432.143" width="1404" height="75.7143" fill="#f5f9fc"/>
<rect x="48" y="507.857" width="1404" height="75.7143" fill="#fff7ef"/>
<rect x="48" y="583.571" width="1404" height="75.7143" fill="#fff7ef"/>
<rect x="48" y="659.286" width="1404" height="75.7143" fill="#fff7ef"/>
<line x1="420.085" y1="195" x2="420.085" y2="739" stroke="#dbe3ea" stroke-width="2"/>
<text x="420.085" y="782" font-size="20" font-weight="400" text-anchor="middle" fill="#536679">-40</text>
<line x1="595.508" y1="195" x2="595.508" y2="739" stroke="#dbe3ea" stroke-width="2"/>
<text x="595.508" y="782" font-size="20" font-weight="400" text-anchor="middle" fill="#536679">-30</text>
<line x1="770.932" y1="195" x2="770.932" y2="739" stroke="#dbe3ea" stroke-width="2"/>
<text x="770.932" y="782" font-size="20" font-weight="400" text-anchor="middle" fill="#536679">-20</text>
<line x1="946.356" y1="195" x2="946.356" y2="739" stroke="#dbe3ea" stroke-width="2"/>
<text x="946.356" y="782" font-size="20" font-weight="400" text-anchor="middle" fill="#536679">-10</text>
<line x1="1121.78" y1="195" x2="1121.78" y2="739" stroke="#dbe3ea" stroke-width="2"/>
<text x="1121.78" y="782" font-size="20" font-weight="400" text-anchor="middle" fill="#536679">+0</text>
<line x1="1297.2" y1="195" x2="1297.2" y2="739" stroke="#dbe3ea" stroke-width="2"/>
<text x="1297.2" y="782" font-size="20" font-weight="400" text-anchor="middle" fill="#536679">+10</text>
<line x1="1121.78" y1="188" x2="1121.78" y2="741" stroke="#17324d" stroke-width="4"/>
<text x="902.5" y="825" font-size="22" font-weight="400" text-anchor="middle" fill="#17324d">change in task success (percentage points)</text>
<text x="360" y="250.857" font-size="22" font-weight="400" text-anchor="end" fill="#17324d">Evolving · DeepSeek V4</text>
<line x1="432.615" y1="242.857" x2="933.826" y2="242.857" stroke="#d55e00" stroke-width="6" stroke-linecap="round"/>
<line x1="432.615" y1="234.857" x2="432.615" y2="250.857" stroke="#d55e00" stroke-width="3"/>
<line x1="933.826" y1="234.857" x2="933.826" y2="250.857" stroke="#d55e00" stroke-width="3"/>
<circle cx="683.22" cy="242.857" r="11" fill="#d55e00" stroke="#ffffff" stroke-width="3"/>
<text x="1445" y="250.857" font-size="21" font-weight="700" text-anchor="end" fill="#d55e00">-25.0 pp</text>
<text x="360" y="326.571" font-size="22" font-weight="400" text-anchor="end" fill="#17324d">Evolving · GPT-OSS 120B</text>
<line x1="526.592" y1="318.571" x2="1090.45" y2="318.571" stroke="#d55e00" stroke-width="6" stroke-linecap="round"/>
<line x1="526.592" y1="310.571" x2="526.592" y2="326.571" stroke="#d55e00" stroke-width="3"/>
<line x1="1090.45" y1="310.571" x2="1090.45" y2="326.571" stroke="#d55e00" stroke-width="3"/>
<circle cx="808.523" cy="318.571" r="11" fill="#d55e00" stroke="#ffffff" stroke-width="3"/>
<text x="1445" y="326.571" font-size="21" font-weight="700" text-anchor="end" fill="#d55e00">-17.9 pp</text>
<text x="360" y="402.286" font-size="22" font-weight="400" text-anchor="end" fill="#17324d">Evolving · GPT-5.6 Terra</text>
<line x1="839.849" y1="394.286" x2="1215.76" y2="394.286" stroke="#d55e00" stroke-width="6" stroke-linecap="round"/>
<line x1="839.849" y1="386.286" x2="839.849" y2="402.286" stroke="#d55e00" stroke-width="3"/>
<line x1="1215.76" y1="386.286" x2="1215.76" y2="402.286" stroke="#d55e00" stroke-width="3"/>
<circle cx="1027.8" cy="394.286" r="11" fill="#d55e00" stroke="#ffffff" stroke-width="3"/>
<text x="1445" y="402.286" font-size="21" font-weight="400" text-anchor="end" fill="#d55e00">-5.4 pp</text>
<text x="360" y="478" font-size="22" font-weight="400" text-anchor="end" fill="#17324d">Evolving · GPT-5.6 Luna</text>
<line x1="996.477" y1="470" x2="1372.38" y2="470" stroke="#0072b2" stroke-width="6" stroke-linecap="round"/>
<line x1="996.477" y1="462" x2="996.477" y2="478" stroke="#0072b2" stroke-width="3"/>
<line x1="1372.38" y1="462" x2="1372.38" y2="478" stroke="#0072b2" stroke-width="3"/>
<circle cx="1184.43" cy="470" r="11" fill="#0072b2" stroke="#ffffff" stroke-width="3"/>
<text x="1445" y="478" font-size="21" font-weight="400" text-anchor="end" fill="#0072b2">+3.6 pp</text>
<line x1="48" y1="507.857" x2="1452" y2="507.857" stroke="#7b8794" stroke-width="3" stroke-dasharray="7 7"/>
<text x="360" y="553.714" font-size="22" font-weight="400" text-anchor="end" fill="#17324d">BFCL · GPT-OSS 120B</text>
<line x1="620.569" y1="545.714" x2="965.151" y2="545.714" stroke="#d55e00" stroke-width="6" stroke-linecap="round"/>
<line x1="620.569" y1="537.714" x2="620.569" y2="553.714" stroke="#d55e00" stroke-width="3"/>
<line x1="965.151" y1="537.714" x2="965.151" y2="553.714" stroke="#d55e00" stroke-width="3"/>
<circle cx="808.523" cy="545.714" r="11" fill="#d55e00" stroke="#ffffff" stroke-width="3"/>
<text x="1445" y="553.714" font-size="21" font-weight="700" text-anchor="end" fill="#d55e00">-17.9 pp</text>
<text x="360" y="629.429" font-size="22" font-weight="400" text-anchor="end" fill="#17324d">BFCL · GPT-5.6 Luna</text>
<line x1="745.872" y1="621.429" x2="1121.78" y2="621.429" stroke="#d55e00" stroke-width="6" stroke-linecap="round"/>
<line x1="745.872" y1="613.429" x2="745.872" y2="629.429" stroke="#d55e00" stroke-width="3"/>
<line x1="1121.78" y1="613.429" x2="1121.78" y2="629.429" stroke="#d55e00" stroke-width="3"/>
<circle cx="933.826" cy="621.429" r="11" fill="#d55e00" stroke="#ffffff" stroke-width="3"/>
<text x="1445" y="629.429" font-size="21" font-weight="400" text-anchor="end" fill="#d55e00">-10.7 pp</text>
<text x="360" y="705.143" font-size="22" font-weight="400" text-anchor="end" fill="#17324d">BFCL · GPT-5.6 Terra</text>
<line x1="933.826" y1="697.143" x2="1247.08" y2="697.143" stroke="#d55e00" stroke-width="6" stroke-linecap="round"/>
<line x1="933.826" y1="689.143" x2="933.826" y2="705.143" stroke="#d55e00" stroke-width="3"/>
<line x1="1247.08" y1="689.143" x2="1247.08" y2="705.143" stroke="#d55e00" stroke-width="3"/>
<circle cx="1090.45" cy="697.143" r="11" fill="#d55e00" stroke="#ffffff" stroke-width="3"/>
<text x="1445" y="705.143" font-size="21" font-weight="400" text-anchor="end" fill="#d55e00">-1.8 pp</text>
<text x="1445" y="180" font-size="20" font-weight="600" text-anchor="end" fill="#334e68">6/7 estimates negative; 3 intervals exclude zero below</text>
</svg>
