<svg xmlns="http://www.w3.org/2000/svg" width="1500" height="850" viewBox="0 0 1500 850">
<title>Selected passive-monitor deployment success under two recovery operators</title>
<style>text { font-family: 'Liberation Sans', Arial, sans-serif; }</style>
<rect x="0" y="0" width="1500" height="850" fill="#ffffff"/>
<text x="55" y="58" font-size="38" font-weight="700" text-anchor="start" fill="#17324d">Selected passive monitors show a different descriptive pattern</text>
<text x="55" y="101" font-size="24" font-weight="400" text-anchor="start" fill="#536679">Lossy compaction matches or exceeds deterministic regrounding for these methods</text>
<text x="55" y="141" font-size="21" font-weight="400" text-anchor="start" fill="#536679">GPT-5.6 Luna × Evolving Intent; n = 40 paired source tasks per cell; sorted by compaction − regrounding</text>
<text x="1445" y="183" font-size="20" font-weight="600" text-anchor="end" fill="#a14300">BFCL recovery interventions were not evaluated</text>
<line x1="155" y1="690" x2="1430" y2="690" stroke="#dbe3ea" stroke-width="2"/>
<text x="137" y="697" font-size="20" font-weight="400" text-anchor="end" fill="#536679">65</text>
<line x1="155" y1="558.571" x2="1430" y2="558.571" stroke="#dbe3ea" stroke-width="2"/>
<text x="137" y="565.571" font-size="20" font-weight="400" text-anchor="end" fill="#536679">70</text>
<line x1="155" y1="427.143" x2="1430" y2="427.143" stroke="#dbe3ea" stroke-width="2"/>
<text x="137" y="434.143" font-size="20" font-weight="400" text-anchor="end" fill="#536679">75</text>
<line x1="155" y1="295.714" x2="1430" y2="295.714" stroke="#dbe3ea" stroke-width="2"/>
<text x="137" y="302.714" font-size="20" font-weight="400" text-anchor="end" fill="#536679">80</text>
<line x1="155" y1="230" x2="155" y2="690" stroke="#7b8794" stroke-width="2"/>
<line x1="155" y1="690" x2="1430" y2="690" stroke="#7b8794" stroke-width="2"/>
<text x="40" y="460" font-size="22" font-weight="400" text-anchor="middle" fill="#17324d" transform="rotate(-90 40 460)">task success (%)</text>
<line x1="147" y1="686" x2="163" y2="676" stroke="#536679" stroke-width="3"/>
<line x1="147" y1="698" x2="163" y2="688" stroke="#536679" stroke-width="3"/>
<rect x="270" y="361.429" width="135" height="328.571" fill="#d55e00" rx="5"/>
<text x="337.5" y="349.429" font-size="20" font-weight="700" text-anchor="middle" fill="#17324d">77.5</text>
<rect x="415" y="492.857" width="135" height="197.143" fill="#0072b2" rx="5"/>
<text x="482.5" y="480.857" font-size="20" font-weight="700" text-anchor="middle" fill="#17324d">72.5</text>
<text x="410" y="738" font-size="22" font-weight="600" text-anchor="middle" fill="#17324d">Trace rules</text>
<text x="410" y="768" font-size="18" font-weight="400" text-anchor="middle" fill="#536679">compaction − regrounding: +5.0 pp</text>
<rect x="652.5" y="295.714" width="135" height="394.286" fill="#d55e00" rx="5"/>
<text x="720" y="283.714" font-size="20" font-weight="700" text-anchor="middle" fill="#17324d">80.0</text>
<rect x="797.5" y="361.429" width="135" height="328.571" fill="#0072b2" rx="5"/>
<text x="865" y="349.429" font-size="20" font-weight="700" text-anchor="middle" fill="#17324d">77.5</text>
<text x="792.5" y="738" font-size="22" font-weight="600" text-anchor="middle" fill="#17324d">Frozen recompute</text>
<text x="792.5" y="768" font-size="18" font-weight="400" text-anchor="middle" fill="#536679">compaction − regrounding: +2.5 pp</text>
<rect x="1035" y="558.571" width="135" height="131.429" fill="#d55e00" rx="5"/>
<text x="1102.5" y="546.571" font-size="20" font-weight="700" text-anchor="middle" fill="#17324d">70.0</text>
<rect x="1180" y="558.571" width="135" height="131.429" fill="#0072b2" rx="5"/>
<text x="1247.5" y="546.571" font-size="20" font-weight="700" text-anchor="middle" fill="#17324d">70.0</text>
<text x="1175" y="738" font-size="22" font-weight="600" text-anchor="middle" fill="#17324d">Trace judge</text>
<text x="1175" y="768" font-size="18" font-weight="400" text-anchor="middle" fill="#536679">compaction − regrounding: +0.0 pp</text>
<rect x="55" y="805" width="28" height="20" fill="#d55e00" rx="3"/>
<text x="95" y="822" font-size="19" font-weight="400" text-anchor="start" fill="#334e68">Lossy compaction</text>
<rect x="285" y="805" width="28" height="20" fill="#0072b2" rx="3"/>
<text x="325" y="822" font-size="19" font-weight="400" text-anchor="start" fill="#334e68">Deterministic regrounding</text>
<text x="1445" y="822" font-size="19" font-weight="400" text-anchor="end" fill="#536679">Point estimates are descriptive; Trace judge ties</text>
</svg>
