<?xml version="1.0" encoding="UTF-8"?>
<svg xmlns="http://www.w3.org/2000/svg" width="940" height="590" viewBox="0 0 940 590" role="img" aria-labelledby="figure-title figure-desc" data-axis-min="0" data-axis-max="1">
<title id="figure-title">Signal quality: gpt-5.6-terra on evolving_intent_gsm8k</title>
<desc id="figure-desc">Task-level precision-recall curves with axes fixed from zero to one. Diamonds identify locked-threshold operating points.</desc>
<defs><style>
      text { font-family: Inter, ui-sans-serif, system-ui, -apple-system, sans-serif; fill: #222222; }
      .title { font-size: 20px; font-weight: 700; }
      .subtitle { font-size: 12px; fill: #666666; }
      .panel-title { font-size: 14px; font-weight: 700; }
      .label { font-size: 11px; }
      .small { font-size: 10px; fill: #666666; }
      .axis { stroke: #222222; stroke-width: 1; fill: none; }
      .grid { stroke: #D9D9D9; stroke-width: 1; fill: none; }
      .zero-line { stroke: #222222; stroke-width: 1.6; stroke-dasharray: 5 4; fill: none; }
    </style></defs>
<text x="24" y="32" class="title">Signal quality: gpt-5.6-terra on evolving_intent_gsm8k</text>
<text x="24" y="52" class="subtitle">Every point aggregates complete task trajectories; locked operating points are diamonds.</text>
<line x1="76.0" y1="72" x2="76.0" y2="532" class="zero-line"/>
<line x1="76" y1="532.0" x2="536" y2="532.0" class="zero-line"/>
<text x="76.0" y="550" text-anchor="middle" class="small">0.0</text>
<text x="66" y="536.0" text-anchor="end" class="small">0.0</text>
<line x1="168.0" y1="72" x2="168.0" y2="532" class="grid"/>
<line x1="76" y1="440.0" x2="536" y2="440.0" class="grid"/>
<text x="168.0" y="550" text-anchor="middle" class="small">0.2</text>
<text x="66" y="444.0" text-anchor="end" class="small">0.2</text>
<line x1="260.0" y1="72" x2="260.0" y2="532" class="grid"/>
<line x1="76" y1="348.0" x2="536" y2="348.0" class="grid"/>
<text x="260.0" y="550" text-anchor="middle" class="small">0.4</text>
<text x="66" y="352.0" text-anchor="end" class="small">0.4</text>
<line x1="352.0" y1="72" x2="352.0" y2="532" class="grid"/>
<line x1="76" y1="256.0" x2="536" y2="256.0" class="grid"/>
<text x="352.0" y="550" text-anchor="middle" class="small">0.6</text>
<text x="66" y="260.0" text-anchor="end" class="small">0.6</text>
<line x1="444.0" y1="72" x2="444.0" y2="532" class="grid"/>
<line x1="76" y1="164.0" x2="536" y2="164.0" class="grid"/>
<text x="444.0" y="550" text-anchor="middle" class="small">0.8</text>
<text x="66" y="168.0" text-anchor="end" class="small">0.8</text>
<line x1="536.0" y1="72" x2="536.0" y2="532" class="grid"/>
<line x1="76" y1="72.0" x2="536" y2="72.0" class="grid"/>
<text x="536.0" y="550" text-anchor="middle" class="small">1.0</text>
<text x="66" y="76.0" text-anchor="end" class="small">1.0</text>
<path d="M 76.00 72.00 L 76.00 302.00 L 106.67 302.00 L 106.67 408.79 L 536.00 408.79" fill="none" stroke="#0072B2" stroke-width="2.5"><title>active_recompute · gpt-5.6-terra · evolving_intent_gsm8k; AUPRC 0.283</title></path>
<polygon points="168.00,400.55 174.00,406.55 168.00,412.55 162.00,406.55" fill="#0072B2" stroke="white" stroke-width="1"><title>Locked threshold 0: precision 0.273, recall 0.200</title></polygon>
<line x1="570" y1="92" x2="602" y2="92" stroke="#0072B2" stroke-width="3"/>
<text x="612" y="90" class="label">active_recompute · gpt-5.6-terra · evolving_intent_gsm8k</text>
<text x="612" y="107" class="small">AUPRC 0.283; prevalence 0.268; n=56</text>
<path d="M 76.00 72.00 L 76.00 72.00 L 114.33 72.00 L 114.33 72.00 L 152.67 72.00 L 152.67 225.33 L 152.67 225.33 L 152.67 302.00 L 152.67 302.00 L 152.67 256.00 L 191.00 256.00 L 191.00 302.00 L 191.00 302.00 L 191.00 334.86 L 191.00 334.86 L 191.00 302.00 L 229.33 302.00 L 229.33 327.56 L 229.33 327.56 L 229.33 302.00 L 267.67 302.00 L 267.67 322.91 L 267.67 322.91 L 267.67 340.33 L 267.67 340.33 L 267.67 355.08 L 267.67 355.08 L 267.67 334.86 L 306.00 334.86 L 306.00 348.00 L 306.00 348.00 L 306.00 359.50 L 306.00 359.50 L 306.00 342.59 L 344.33 342.59 L 344.33 353.11 L 344.33 353.11 L 344.33 362.53 L 344.33 362.53 L 344.33 371.00 L 344.33 371.00 L 344.33 378.67 L 344.33 378.67 L 344.33 364.73 L 382.67 364.73 L 382.67 372.00 L 382.67 372.00 L 382.67 359.50 L 421.00 359.50 L 421.00 355.08 L 459.33 355.08 L 459.33 344.59 L 497.67 344.59 L 497.67 351.29 L 497.67 351.29 L 497.67 357.52 L 497.67 357.52 L 497.67 363.33 L 497.67 363.33 L 497.67 368.77 L 497.67 368.77 L 497.67 373.88 L 497.67 373.88 L 497.67 378.67 L 497.67 378.67 L 497.67 383.18 L 497.67 383.18 L 497.67 391.44 L 497.67 391.44 L 497.67 382.81 L 536.00 382.81 L 536.00 386.74 L 536.00 386.74 L 536.00 390.46 L 536.00 390.46 L 536.00 394.00 L 536.00 394.00 L 536.00 397.37 L 536.00 397.37 L 536.00 400.57 L 536.00 400.57 L 536.00 403.63 L 536.00 403.63 L 536.00 406.55 L 536.00 406.55 L 536.00 409.33 L 536.00 409.33 L 536.00 412.00 L 536.00 412.00 L 536.00 414.55 L 536.00 414.55 L 536.00 417.00 L 536.00 417.00 L 536.00 419.35 L 536.00 419.35 L 536.00 421.60 L 536.00 421.60 L 536.00 423.76 L 536.00 423.76 L 536.00 425.85 L 536.00 425.85 L 536.00 427.85 L 536.00 427.85 L 536.00 429.78 L 536.00 429.78 L 536.00 431.64 L 536.00 431.64 L 536.00 433.43 L 536.00 433.43" fill="none" stroke="#E69F00" stroke-width="2.5" stroke-dasharray="8 4"><title>context_use · gpt-5.6-terra · evolving_intent_gsm8k; AUPRC 0.525</title></path>
<polygon points="267.67,316.91 273.67,322.91 267.67,328.91 261.67,322.91" fill="#E69F00" stroke="white" stroke-width="1"><title>Locked threshold 0.0006533: precision 0.455, recall 0.417</title></polygon>
<line x1="570" y1="147" x2="602" y2="147" stroke="#E69F00" stroke-width="3" stroke-dasharray="8 4"/>
<text x="612" y="145" class="label">context_use · gpt-5.6-terra · evolving_intent_gsm8k</text>
<text x="612" y="162" class="small">AUPRC 0.525; prevalence 0.214; n=56</text>
<path d="M 76.00 72.00 L 76.00 433.43 L 536.00 433.43" fill="none" stroke="#009E73" stroke-width="2.5" stroke-dasharray="3 3"><title>frozen_probe:current_copy · gpt-5.6-terra · evolving_intent_gsm8k; AUPRC 0.214</title></path>
<polygon points="152.67,442.36 158.67,448.36 152.67,454.36 146.67,448.36" fill="#009E73" stroke="white" stroke-width="1"><title>Locked threshold 0: precision 0.182, recall 0.167</title></polygon>
<line x1="570" y1="202" x2="602" y2="202" stroke="#009E73" stroke-width="3" stroke-dasharray="3 3"/>
<text x="612" y="200" class="label">frozen_probe:current_copy · gpt-5.6-terra · evolving_intent_gsm8k</text>
<text x="612" y="217" class="small">AUPRC 0.214; prevalence 0.214; n=56</text>
<path d="M 76.00 72.00 L 76.00 532.00 L 76.00 532.00 L 76.00 433.43 L 536.00 433.43" fill="none" stroke="#D55E00" stroke-width="2.5" stroke-dasharray="10 3 2 3"><title>frozen_probe:recompute · gpt-5.6-terra · evolving_intent_gsm8k; AUPRC 0.214</title></path>
<polygon points="152.67,442.36 158.67,448.36 152.67,454.36 146.67,448.36" fill="#D55E00" stroke="white" stroke-width="1"><title>Locked threshold 0: precision 0.182, recall 0.167</title></polygon>
<line x1="570" y1="257" x2="602" y2="257" stroke="#D55E00" stroke-width="3" stroke-dasharray="10 3 2 3"/>
<text x="612" y="255" class="label">frozen_probe:recompute · gpt-5.6-terra · evolving_intent_gsm8k</text>
<text x="612" y="272" class="small">AUPRC 0.214; prevalence 0.214; n=56</text>
<path d="M 76.00 72.00 L 76.00 302.00 L 344.33 302.00 L 344.33 317.33 L 344.33 317.33 L 344.33 372.00 L 382.67 372.00 L 382.67 378.67 L 382.67 378.67 L 382.67 395.70 L 382.67 395.70 L 382.67 419.35 L 536.00 419.35 L 536.00 433.43 L 536.00 433.43" fill="none" stroke="#CC79A7" stroke-width="2.5" stroke-dasharray="2 2"><title>frozen_quiz · gpt-5.6-terra · evolving_intent_gsm8k; AUPRC 0.402</title></path>
<polygon points="306.00,275.09 312.00,281.09 306.00,287.09 300.00,281.09" fill="#CC79A7" stroke="white" stroke-width="1"><title>Locked threshold 1: precision 0.545, recall 0.500</title></polygon>
<line x1="570" y1="312" x2="602" y2="312" stroke="#CC79A7" stroke-width="3" stroke-dasharray="2 2"/>
<text x="612" y="310" class="label">frozen_quiz · gpt-5.6-terra · evolving_intent_gsm8k</text>
<text x="612" y="327" class="small">AUPRC 0.402; prevalence 0.214; n=56</text>
<path d="M 76.00 72.00 L 76.00 72.00 L 114.33 72.00 L 114.33 72.00 L 152.67 72.00 L 152.67 72.00 L 191.00 72.00 L 191.00 164.00 L 229.33 164.00 L 229.33 269.14 L 229.33 269.14 L 229.33 302.00 L 229.33 302.00 L 229.33 327.56 L 229.33 327.56 L 229.33 348.00 L 229.33 348.00 L 229.33 340.33 L 267.67 340.33 L 267.67 348.00 L 306.00 348.00 L 306.00 369.65 L 306.00 369.65 L 306.00 378.67 L 344.33 378.67 L 344.33 390.46 L 382.67 390.46 L 382.67 432.54 L 382.67 432.54 L 382.67 423.05 L 421.00 423.05 L 421.00 424.34 L 497.67 424.34 L 497.67 428.73 L 497.67 428.73 L 497.67 430.80 L 497.67 430.80 L 497.67 436.53 L 497.67 436.53 L 497.67 433.43 L 536.00 433.43" fill="none" stroke="#56B4E9" stroke-width="2.5"><title>trace_judge · gpt-5.6-terra · evolving_intent_gsm8k; AUPRC 0.515</title></path>
<polygon points="267.67,316.91 273.67,322.91 267.67,328.91 261.67,322.91" fill="#56B4E9" stroke="white" stroke-width="1"><title>Locked threshold 0.62: precision 0.455, recall 0.417</title></polygon>
<line x1="570" y1="367" x2="602" y2="367" stroke="#56B4E9" stroke-width="3"/>
<text x="612" y="365" class="label">trace_judge · gpt-5.6-terra · evolving_intent_gsm8k</text>
<text x="612" y="382" class="small">AUPRC 0.515; prevalence 0.214; n=56</text>
<path d="M 76.00 72.00 L 76.00 433.43 L 536.00 433.43" fill="none" stroke="#000000" stroke-width="2.5" stroke-dasharray="8 4"><title>trace_rules · gpt-5.6-terra · evolving_intent_gsm8k; AUPRC 0.214</title></path>
<polygon points="152.67,442.36 158.67,448.36 152.67,454.36 146.67,448.36" fill="#000000" stroke="white" stroke-width="1"><title>Locked threshold 0: precision 0.182, recall 0.167</title></polygon>
<line x1="570" y1="422" x2="602" y2="422" stroke="#000000" stroke-width="3" stroke-dasharray="8 4"/>
<text x="612" y="420" class="label">trace_rules · gpt-5.6-terra · evolving_intent_gsm8k</text>
<text x="612" y="437" class="small">AUPRC 0.214; prevalence 0.214; n=56</text>
<path d="M 76.00 72.00 L 76.00 433.43 L 536.00 433.43" fill="none" stroke="#0072B2" stroke-width="2.5" stroke-dasharray="3 3"><title>turn_clock · gpt-5.6-terra · evolving_intent_gsm8k; AUPRC 0.214</title></path>
<polygon points="152.67,442.36 158.67,448.36 152.67,454.36 146.67,448.36" fill="#0072B2" stroke="white" stroke-width="1"><title>Locked threshold 0.8571: precision 0.182, recall 0.167</title></polygon>
<line x1="570" y1="477" x2="602" y2="477" stroke="#0072B2" stroke-width="3" stroke-dasharray="3 3"/>
<text x="612" y="475" class="label">turn_clock · gpt-5.6-terra · evolving_intent_gsm8k</text>
<text x="612" y="492" class="small">AUPRC 0.214; prevalence 0.214; n=56</text>
<line x1="76" y1="532" x2="536" y2="532" class="axis"/>
<line x1="76" y1="72" x2="76" y2="532" class="axis"/>
<text x="306.0" y="565" text-anchor="middle" class="label">Recall across tasks</text>
<text x="22" y="302.0" text-anchor="middle" class="label" transform="rotate(-90 22 302.0)">Precision across fired tasks</text>
</svg>
