<svg xmlns="http://www.w3.org/2000/svg" width="1160" height="676" viewBox="0 0 1160 676" role="img" aria-label="Online method × operator interactions">
<style>
text{font-family:Inter,ui-sans-serif,system-ui,-apple-system,BlinkMacSystemFont,'Segoe UI',sans-serif;fill:#172033}
.title{font-size:24px;font-weight:720;letter-spacing:-.3px}.subtitle{font-size:12.5px;fill:#5b6679}
.label{font-size:12px;font-weight:620}.small{font-size:10.5px;fill:#657188}.tick{font-size:10px;fill:#738096}
</style>
<rect width="100%" height="100%" fill="#fff"/>
<text class="title" x="28" y="34">Online method × operator interactions</text>
<text class="subtitle" x="28" y="55">Change in each zero-carry method’s success gap versus active recompute, operator relative to no state action</text>
<line x1="28" y1="70" x2="1132" y2="70" stroke="#e5e9ef"/>
<line x1="919.2" y1="84" x2="919.2" y2="631" stroke="#8993a4" stroke-width="1.4"/>
<line x1="360.0" y1="84" x2="360.0" y2="631" stroke="#e7eaf0"/>
<text class="tick" x="360.0" y="651" text-anchor="middle">-93.6 pp</text>
<line x1="546.2" y1="84" x2="546.2" y2="631" stroke="#e7eaf0"/>
<text class="tick" x="546.2" y="651" text-anchor="middle">-62.4 pp</text>
<line x1="732.5" y1="84" x2="732.5" y2="631" stroke="#e7eaf0"/>
<text class="tick" x="732.5" y="651" text-anchor="middle">-31.2 pp</text>
<line x1="918.8" y1="84" x2="918.8" y2="631" stroke="#e7eaf0"/>
<text class="tick" x="918.8" y="651" text-anchor="middle">-0.1 pp</text>
<line x1="1105.0" y1="84" x2="1105.0" y2="631" stroke="#e7eaf0"/>
<text class="tick" x="1105.0" y="651" text-anchor="middle">+31.1 pp</text>
<text class="small" x="348.0" y="106.0" text-anchor="end">Frozen recompute · Lossy compaction</text>
<line x1="889.3" y1="102.0" x2="1053.6" y2="102.0" stroke="#d97706" stroke-width="2"/>
<circle cx="964.0" cy="102.0" r="4.5" fill="#d97706"/>
<text class="small" x="348.0" y="137.0" text-anchor="end">Frozen recompute · Public-state reground</text>
<line x1="784.4" y1="133.0" x2="964.0" y2="133.0" stroke="#0f766e" stroke-width="2"/>
<circle cx="874.4" cy="133.0" r="4.5" fill="#0f766e"/>
<text class="small" x="348.0" y="168.0" text-anchor="end">Frozen recompute · GOOD/BAD/WATCH</text>
<line x1="844.5" y1="164.0" x2="1008.8" y2="164.0" stroke="#7c3aed" stroke-width="2"/>
<circle cx="934.1" cy="164.0" r="4.5" fill="#7c3aed"/>
<text class="small" x="348.0" y="199.0" text-anchor="end">Frozen quiz · Lossy compaction</text>
<line x1="620.5" y1="195.0" x2="844.5" y2="195.0" stroke="#d97706" stroke-width="2"/>
<circle cx="740.0" cy="195.0" r="4.5" fill="#d97706"/>
<text class="small" x="348.0" y="230.0" text-anchor="end">Frozen quiz · Public-state reground</text>
<line x1="710.1" y1="226.0" x2="874.4" y2="226.0" stroke="#0f766e" stroke-width="2"/>
<circle cx="799.7" cy="226.0" r="4.5" fill="#0f766e"/>
<text class="small" x="348.0" y="261.0" text-anchor="end">Frozen quiz · GOOD/BAD/WATCH</text>
<line x1="829.6" y1="257.0" x2="993.9" y2="257.0" stroke="#7c3aed" stroke-width="2"/>
<circle cx="919.2" cy="257.0" r="4.5" fill="#7c3aed"/>
<text class="small" x="348.0" y="292.0" text-anchor="end">Trace judge · Lossy compaction</text>
<line x1="784.8" y1="288.0" x2="1008.8" y2="288.0" stroke="#d97706" stroke-width="2"/>
<circle cx="904.3" cy="288.0" r="4.5" fill="#d97706"/>
<text class="small" x="348.0" y="323.0" text-anchor="end">Trace judge · Public-state reground</text>
<line x1="740.0" y1="319.0" x2="904.3" y2="319.0" stroke="#0f766e" stroke-width="2"/>
<circle cx="829.6" cy="319.0" r="4.5" fill="#0f766e"/>
<text class="small" x="348.0" y="354.0" text-anchor="end">Trace judge · GOOD/BAD/WATCH</text>
<line x1="784.8" y1="350.0" x2="978.9" y2="350.0" stroke="#7c3aed" stroke-width="2"/>
<circle cx="889.3" cy="350.0" r="4.5" fill="#7c3aed"/>
<text class="small" x="348.0" y="385.0" text-anchor="end">Trace rules · Lossy compaction</text>
<line x1="859.5" y1="381.0" x2="1023.7" y2="381.0" stroke="#d97706" stroke-width="2"/>
<circle cx="934.1" cy="381.0" r="4.5" fill="#d97706"/>
<text class="small" x="348.0" y="416.0" text-anchor="end">Trace rules · Public-state reground</text>
<line x1="725.0" y1="412.0" x2="919.2" y2="412.0" stroke="#0f766e" stroke-width="2"/>
<circle cx="829.6" cy="412.0" r="4.5" fill="#0f766e"/>
<text class="small" x="348.0" y="447.0" text-anchor="end">Trace rules · GOOD/BAD/WATCH</text>
<line x1="874.4" y1="443.0" x2="1053.6" y2="443.0" stroke="#7c3aed" stroke-width="2"/>
<circle cx="964.0" cy="443.0" r="4.5" fill="#7c3aed"/>
<text class="small" x="348.0" y="478.0" text-anchor="end">Turn clock · Lossy compaction</text>
<line x1="411.4" y1="474.0" x2="620.5" y2="474.0" stroke="#d97706" stroke-width="2"/>
<circle cx="515.9" cy="474.0" r="4.5" fill="#d97706"/>
<text class="small" x="348.0" y="509.0" text-anchor="end">Turn clock · Public-state reground</text>
<line x1="754.9" y1="505.0" x2="949.1" y2="505.0" stroke="#0f766e" stroke-width="2"/>
<circle cx="859.5" cy="505.0" r="4.5" fill="#0f766e"/>
<text class="small" x="348.0" y="540.0" text-anchor="end">Turn clock · GOOD/BAD/WATCH</text>
<line x1="874.4" y1="536.0" x2="1038.7" y2="536.0" stroke="#7c3aed" stroke-width="2"/>
<circle cx="949.1" cy="536.0" r="4.5" fill="#7c3aed"/>
<text class="small" x="348.0" y="571.0" text-anchor="end">Context use · Lossy compaction</text>
<line x1="695.2" y1="567.0" x2="904.3" y2="567.0" stroke="#d97706" stroke-width="2"/>
<circle cx="799.7" cy="567.0" r="4.5" fill="#d97706"/>
<text class="small" x="348.0" y="602.0" text-anchor="end">Context use · Public-state reground</text>
<line x1="754.9" y1="598.0" x2="904.3" y2="598.0" stroke="#0f766e" stroke-width="2"/>
<circle cx="829.6" cy="598.0" r="4.5" fill="#0f766e"/>
<text class="small" x="348.0" y="633.0" text-anchor="end">Context use · GOOD/BAD/WATCH</text>
<line x1="859.5" y1="629.0" x2="978.9" y2="629.0" stroke="#7c3aed" stroke-width="2"/>
<circle cx="919.2" cy="629.0" r="4.5" fill="#7c3aed"/>
<text class="small" x="28" y="667">Effects are paired by source task; intervals are descriptive percentile bootstrap intervals without multiplicity correction.</text>
</svg>
