<svg xmlns="http://www.w3.org/2000/svg" width="1480" height="650" viewBox="0 0 1480 650" role="img" aria-label="Online deployment performance">
<style>
text{font-family:Inter,ui-sans-serif,system-ui,-apple-system,BlinkMacSystemFont,'Segoe UI',sans-serif;fill:#172033}
.title{font-size:24px;font-weight:720;letter-spacing:-.3px}.subtitle{font-size:12.5px;fill:#5b6679}
.label{font-size:12px;font-weight:620}.small{font-size:10.5px;fill:#657188}.tick{font-size:10px;fill:#738096}
</style>
<rect width="100%" height="100%" fill="#fff"/>
<text class="title" x="28" y="34">Online deployment performance</text>
<text class="subtitle" x="28" y="55">Natural scalar-cutoff policies · 40 paired source tasks per method/operator · 95% task bootstrap intervals</text>
<line x1="28" y1="70" x2="1452" y2="70" stroke="#e5e9ef"/>
<rect x="70.0" y="88" width="330.0" height="450" rx="8" fill="#fafbfc" stroke="#e8ebf0"/>
<text class="label" x="235.0" y="105" text-anchor="middle">No state action</text>
<line x1="104.0" y1="498.0" x2="388.0" y2="498.0" stroke="#e7eaf0"/>
<text class="tick" x="98.0" y="501.0" text-anchor="end">0%</text>
<line x1="104.0" y1="420.0" x2="388.0" y2="420.0" stroke="#e7eaf0"/>
<text class="tick" x="98.0" y="423.0" text-anchor="end">20%</text>
<line x1="104.0" y1="342.0" x2="388.0" y2="342.0" stroke="#e7eaf0"/>
<text class="tick" x="98.0" y="345.0" text-anchor="end">40%</text>
<line x1="104.0" y1="264.0" x2="388.0" y2="264.0" stroke="#e7eaf0"/>
<text class="tick" x="98.0" y="267.0" text-anchor="end">60%</text>
<line x1="104.0" y1="186.0" x2="388.0" y2="186.0" stroke="#e7eaf0"/>
<text class="tick" x="98.0" y="189.0" text-anchor="end">80%</text>
<line x1="104.0" y1="108.0" x2="388.0" y2="108.0" stroke="#e7eaf0"/>
<text class="tick" x="98.0" y="111.0" text-anchor="end">100%</text>
<rect x="121.4" y="215.2" width="20" height="282.8" rx="2" fill="#64748b" opacity=".88"/>
<line x1="131.4" y1="166.5" x2="131.4" y2="273.8" stroke="#172033"/>
<line x1="127.4" y1="166.5" x2="135.4" y2="166.5" stroke="#172033"/>
<line x1="127.4" y1="273.8" x2="135.4" y2="273.8" stroke="#172033"/>
<text class="tick" x="131.4" y="520" text-anchor="end" transform="rotate(-48 131.4 520)">Turn clock</text>
<rect x="160.3" y="215.2" width="20" height="282.8" rx="2" fill="#64748b" opacity=".88"/>
<line x1="170.3" y1="166.5" x2="170.3" y2="273.8" stroke="#172033"/>
<line x1="166.3" y1="166.5" x2="174.3" y2="166.5" stroke="#172033"/>
<line x1="166.3" y1="273.8" x2="174.3" y2="273.8" stroke="#172033"/>
<text class="tick" x="170.3" y="520" text-anchor="end" transform="rotate(-48 170.3 520)">Context use</text>
<rect x="199.1" y="215.2" width="20" height="282.8" rx="2" fill="#dc2626" opacity=".88"/>
<line x1="209.1" y1="156.8" x2="209.1" y2="273.8" stroke="#172033"/>
<line x1="205.1" y1="156.8" x2="213.1" y2="156.8" stroke="#172033"/>
<line x1="205.1" y1="273.8" x2="213.1" y2="273.8" stroke="#172033"/>
<text class="tick" x="209.1" y="520" text-anchor="end" transform="rotate(-48 209.1 520)">Active recompute</text>
<rect x="238.0" y="215.2" width="20" height="282.8" rx="2" fill="#2563eb" opacity=".88"/>
<line x1="248.0" y1="166.5" x2="248.0" y2="273.8" stroke="#172033"/>
<line x1="244.0" y1="166.5" x2="252.0" y2="166.5" stroke="#172033"/>
<line x1="244.0" y1="273.8" x2="252.0" y2="273.8" stroke="#172033"/>
<text class="tick" x="248.0" y="520" text-anchor="end" transform="rotate(-48 248.0 520)">Frozen recompute</text>
<rect x="276.9" y="205.5" width="20" height="292.5" rx="2" fill="#2563eb" opacity=".88"/>
<line x1="286.9" y1="156.8" x2="286.9" y2="264.0" stroke="#172033"/>
<line x1="282.9" y1="156.8" x2="290.9" y2="156.8" stroke="#172033"/>
<line x1="282.9" y1="264.0" x2="290.9" y2="264.0" stroke="#172033"/>
<text class="tick" x="286.9" y="520" text-anchor="end" transform="rotate(-48 286.9 520)">Frozen quiz</text>
<rect x="315.7" y="215.2" width="20" height="282.8" rx="2" fill="#2563eb" opacity=".88"/>
<line x1="325.7" y1="166.5" x2="325.7" y2="273.8" stroke="#172033"/>
<line x1="321.7" y1="166.5" x2="329.7" y2="166.5" stroke="#172033"/>
<line x1="321.7" y1="273.8" x2="329.7" y2="273.8" stroke="#172033"/>
<text class="tick" x="325.7" y="520" text-anchor="end" transform="rotate(-48 325.7 520)">Trace judge</text>
<rect x="354.6" y="205.5" width="20" height="292.5" rx="2" fill="#2563eb" opacity=".88"/>
<line x1="364.6" y1="156.8" x2="364.6" y2="254.2" stroke="#172033"/>
<line x1="360.6" y1="156.8" x2="368.6" y2="156.8" stroke="#172033"/>
<line x1="360.6" y1="254.2" x2="368.6" y2="254.2" stroke="#172033"/>
<text class="tick" x="364.6" y="520" text-anchor="end" transform="rotate(-48 364.6 520)">Trace rules</text>
<rect x="425.0" y="88" width="330.0" height="450" rx="8" fill="#fafbfc" stroke="#e8ebf0"/>
<text class="label" x="590.0" y="105" text-anchor="middle">Lossy compaction</text>
<line x1="459.0" y1="498.0" x2="743.0" y2="498.0" stroke="#e7eaf0"/>
<line x1="459.0" y1="420.0" x2="743.0" y2="420.0" stroke="#e7eaf0"/>
<line x1="459.0" y1="342.0" x2="743.0" y2="342.0" stroke="#e7eaf0"/>
<line x1="459.0" y1="264.0" x2="743.0" y2="264.0" stroke="#e7eaf0"/>
<line x1="459.0" y1="186.0" x2="743.0" y2="186.0" stroke="#e7eaf0"/>
<line x1="459.0" y1="108.0" x2="743.0" y2="108.0" stroke="#e7eaf0"/>
<rect x="476.4" y="478.5" width="20" height="19.5" rx="2" fill="#64748b" opacity=".88"/>
<line x1="486.4" y1="449.2" x2="486.4" y2="498.0" stroke="#172033"/>
<line x1="482.4" y1="449.2" x2="490.4" y2="449.2" stroke="#172033"/>
<line x1="482.4" y1="498.0" x2="490.4" y2="498.0" stroke="#172033"/>
<text class="tick" x="486.4" y="520" text-anchor="end" transform="rotate(-48 486.4 520)">Turn clock</text>
<rect x="515.3" y="293.2" width="20" height="204.8" rx="2" fill="#64748b" opacity=".88"/>
<line x1="525.3" y1="234.8" x2="525.3" y2="361.5" stroke="#172033"/>
<line x1="521.3" y1="234.8" x2="529.3" y2="234.8" stroke="#172033"/>
<line x1="521.3" y1="361.5" x2="529.3" y2="361.5" stroke="#172033"/>
<text class="tick" x="525.3" y="520" text-anchor="end" transform="rotate(-48 525.3 520)">Context use</text>
<rect x="554.1" y="215.2" width="20" height="282.8" rx="2" fill="#dc2626" opacity=".88"/>
<line x1="564.1" y1="166.5" x2="564.1" y2="273.8" stroke="#172033"/>
<line x1="560.1" y1="166.5" x2="568.1" y2="166.5" stroke="#172033"/>
<line x1="560.1" y1="273.8" x2="568.1" y2="273.8" stroke="#172033"/>
<text class="tick" x="564.1" y="520" text-anchor="end" transform="rotate(-48 564.1 520)">Active recompute</text>
<rect x="593.0" y="186.0" width="20" height="312.0" rx="2" fill="#2563eb" opacity=".88"/>
<line x1="603.0" y1="137.2" x2="603.0" y2="234.8" stroke="#172033"/>
<line x1="599.0" y1="137.2" x2="607.0" y2="137.2" stroke="#172033"/>
<line x1="599.0" y1="234.8" x2="607.0" y2="234.8" stroke="#172033"/>
<text class="tick" x="603.0" y="520" text-anchor="end" transform="rotate(-48 603.0 520)">Frozen recompute</text>
<rect x="631.9" y="322.5" width="20" height="175.5" rx="2" fill="#2563eb" opacity=".88"/>
<line x1="641.9" y1="264.0" x2="641.9" y2="381.0" stroke="#172033"/>
<line x1="637.9" y1="264.0" x2="645.9" y2="264.0" stroke="#172033"/>
<line x1="637.9" y1="381.0" x2="645.9" y2="381.0" stroke="#172033"/>
<text class="tick" x="641.9" y="520" text-anchor="end" transform="rotate(-48 641.9 520)">Frozen quiz</text>
<rect x="670.7" y="225.0" width="20" height="273.0" rx="2" fill="#2563eb" opacity=".88"/>
<line x1="680.7" y1="166.5" x2="680.7" y2="283.5" stroke="#172033"/>
<line x1="676.7" y1="166.5" x2="684.7" y2="166.5" stroke="#172033"/>
<line x1="676.7" y1="283.5" x2="684.7" y2="283.5" stroke="#172033"/>
<text class="tick" x="680.7" y="520" text-anchor="end" transform="rotate(-48 680.7 520)">Trace judge</text>
<rect x="709.6" y="195.8" width="20" height="302.2" rx="2" fill="#2563eb" opacity=".88"/>
<line x1="719.6" y1="147.0" x2="719.6" y2="244.5" stroke="#172033"/>
<line x1="715.6" y1="147.0" x2="723.6" y2="147.0" stroke="#172033"/>
<line x1="715.6" y1="244.5" x2="723.6" y2="244.5" stroke="#172033"/>
<text class="tick" x="719.6" y="520" text-anchor="end" transform="rotate(-48 719.6 520)">Trace rules</text>
<rect x="780.0" y="88" width="330.0" height="450" rx="8" fill="#fafbfc" stroke="#e8ebf0"/>
<text class="label" x="945.0" y="105" text-anchor="middle">Public-state reground</text>
<line x1="814.0" y1="498.0" x2="1098.0" y2="498.0" stroke="#e7eaf0"/>
<line x1="814.0" y1="420.0" x2="1098.0" y2="420.0" stroke="#e7eaf0"/>
<line x1="814.0" y1="342.0" x2="1098.0" y2="342.0" stroke="#e7eaf0"/>
<line x1="814.0" y1="264.0" x2="1098.0" y2="264.0" stroke="#e7eaf0"/>
<line x1="814.0" y1="186.0" x2="1098.0" y2="186.0" stroke="#e7eaf0"/>
<line x1="814.0" y1="108.0" x2="1098.0" y2="108.0" stroke="#e7eaf0"/>
<rect x="831.4" y="205.5" width="20" height="292.5" rx="2" fill="#64748b" opacity=".88"/>
<line x1="841.4" y1="156.8" x2="841.4" y2="264.0" stroke="#172033"/>
<line x1="837.4" y1="156.8" x2="845.4" y2="156.8" stroke="#172033"/>
<line x1="837.4" y1="264.0" x2="845.4" y2="264.0" stroke="#172033"/>
<text class="tick" x="841.4" y="520" text-anchor="end" transform="rotate(-48 841.4 520)">Turn clock</text>
<rect x="870.3" y="225.0" width="20" height="273.0" rx="2" fill="#64748b" opacity=".88"/>
<line x1="880.3" y1="176.2" x2="880.3" y2="283.5" stroke="#172033"/>
<line x1="876.3" y1="176.2" x2="884.3" y2="176.2" stroke="#172033"/>
<line x1="876.3" y1="283.5" x2="884.3" y2="283.5" stroke="#172033"/>
<text class="tick" x="880.3" y="520" text-anchor="end" transform="rotate(-48 880.3 520)">Context use</text>
<rect x="909.1" y="166.5" width="20" height="331.5" rx="2" fill="#dc2626" opacity=".88"/>
<line x1="919.1" y1="127.5" x2="919.1" y2="215.2" stroke="#172033"/>
<line x1="915.1" y1="127.5" x2="923.1" y2="127.5" stroke="#172033"/>
<line x1="915.1" y1="215.2" x2="923.1" y2="215.2" stroke="#172033"/>
<text class="tick" x="919.1" y="520" text-anchor="end" transform="rotate(-48 919.1 520)">Active recompute</text>
<rect x="948.0" y="195.8" width="20" height="302.2" rx="2" fill="#2563eb" opacity=".88"/>
<line x1="958.0" y1="147.0" x2="958.0" y2="254.2" stroke="#172033"/>
<line x1="954.0" y1="147.0" x2="962.0" y2="147.0" stroke="#172033"/>
<line x1="954.0" y1="254.2" x2="962.0" y2="254.2" stroke="#172033"/>
<text class="tick" x="958.0" y="520" text-anchor="end" transform="rotate(-48 958.0 520)">Frozen recompute</text>
<rect x="986.9" y="234.8" width="20" height="263.2" rx="2" fill="#2563eb" opacity=".88"/>
<line x1="996.9" y1="176.2" x2="996.9" y2="293.2" stroke="#172033"/>
<line x1="992.9" y1="176.2" x2="1000.9" y2="176.2" stroke="#172033"/>
<line x1="992.9" y1="293.2" x2="1000.9" y2="293.2" stroke="#172033"/>
<text class="tick" x="996.9" y="520" text-anchor="end" transform="rotate(-48 996.9 520)">Frozen quiz</text>
<rect x="1025.7" y="225.0" width="20" height="273.0" rx="2" fill="#2563eb" opacity=".88"/>
<line x1="1035.7" y1="176.2" x2="1035.7" y2="283.5" stroke="#172033"/>
<line x1="1031.7" y1="176.2" x2="1039.7" y2="176.2" stroke="#172033"/>
<line x1="1031.7" y1="283.5" x2="1039.7" y2="283.5" stroke="#172033"/>
<text class="tick" x="1035.7" y="520" text-anchor="end" transform="rotate(-48 1035.7 520)">Trace judge</text>
<rect x="1064.6" y="215.2" width="20" height="282.8" rx="2" fill="#2563eb" opacity=".88"/>
<line x1="1074.6" y1="166.5" x2="1074.6" y2="273.8" stroke="#172033"/>
<line x1="1070.6" y1="166.5" x2="1078.6" y2="166.5" stroke="#172033"/>
<line x1="1070.6" y1="273.8" x2="1078.6" y2="273.8" stroke="#172033"/>
<text class="tick" x="1074.6" y="520" text-anchor="end" transform="rotate(-48 1074.6 520)">Trace rules</text>
<rect x="1135.0" y="88" width="330.0" height="450" rx="8" fill="#fafbfc" stroke="#e8ebf0"/>
<text class="label" x="1300.0" y="105" text-anchor="middle">GOOD/BAD/WATCH</text>
<line x1="1169.0" y1="498.0" x2="1453.0" y2="498.0" stroke="#e7eaf0"/>
<line x1="1169.0" y1="420.0" x2="1453.0" y2="420.0" stroke="#e7eaf0"/>
<line x1="1169.0" y1="342.0" x2="1453.0" y2="342.0" stroke="#e7eaf0"/>
<line x1="1169.0" y1="264.0" x2="1453.0" y2="264.0" stroke="#e7eaf0"/>
<line x1="1169.0" y1="186.0" x2="1453.0" y2="186.0" stroke="#e7eaf0"/>
<line x1="1169.0" y1="108.0" x2="1453.0" y2="108.0" stroke="#e7eaf0"/>
<rect x="1186.4" y="195.8" width="20" height="302.2" rx="2" fill="#64748b" opacity=".88"/>
<line x1="1196.4" y1="147.0" x2="1196.4" y2="244.5" stroke="#172033"/>
<line x1="1192.4" y1="147.0" x2="1200.4" y2="147.0" stroke="#172033"/>
<line x1="1192.4" y1="244.5" x2="1200.4" y2="244.5" stroke="#172033"/>
<text class="tick" x="1196.4" y="520" text-anchor="end" transform="rotate(-48 1196.4 520)">Turn clock</text>
<rect x="1225.3" y="215.2" width="20" height="282.8" rx="2" fill="#64748b" opacity=".88"/>
<line x1="1235.3" y1="166.5" x2="1235.3" y2="273.8" stroke="#172033"/>
<line x1="1231.3" y1="166.5" x2="1239.3" y2="166.5" stroke="#172033"/>
<line x1="1231.3" y1="273.8" x2="1239.3" y2="273.8" stroke="#172033"/>
<text class="tick" x="1235.3" y="520" text-anchor="end" transform="rotate(-48 1235.3 520)">Context use</text>
<rect x="1264.1" y="215.2" width="20" height="282.8" rx="2" fill="#dc2626" opacity=".88"/>
<line x1="1274.1" y1="166.5" x2="1274.1" y2="273.8" stroke="#172033"/>
<line x1="1270.1" y1="166.5" x2="1278.1" y2="166.5" stroke="#172033"/>
<line x1="1270.1" y1="273.8" x2="1278.1" y2="273.8" stroke="#172033"/>
<text class="tick" x="1274.1" y="520" text-anchor="end" transform="rotate(-48 1274.1 520)">Active recompute</text>
<rect x="1303.0" y="205.5" width="20" height="292.5" rx="2" fill="#2563eb" opacity=".88"/>
<line x1="1313.0" y1="156.8" x2="1313.0" y2="254.2" stroke="#172033"/>
<line x1="1309.0" y1="156.8" x2="1317.0" y2="156.8" stroke="#172033"/>
<line x1="1309.0" y1="254.2" x2="1317.0" y2="254.2" stroke="#172033"/>
<text class="tick" x="1313.0" y="520" text-anchor="end" transform="rotate(-48 1313.0 520)">Frozen recompute</text>
<rect x="1341.9" y="205.5" width="20" height="292.5" rx="2" fill="#2563eb" opacity=".88"/>
<line x1="1351.9" y1="156.8" x2="1351.9" y2="254.2" stroke="#172033"/>
<line x1="1347.9" y1="156.8" x2="1355.9" y2="156.8" stroke="#172033"/>
<line x1="1347.9" y1="254.2" x2="1355.9" y2="254.2" stroke="#172033"/>
<text class="tick" x="1351.9" y="520" text-anchor="end" transform="rotate(-48 1351.9 520)">Frozen quiz</text>
<rect x="1380.7" y="234.8" width="20" height="263.2" rx="2" fill="#2563eb" opacity=".88"/>
<line x1="1390.7" y1="176.2" x2="1390.7" y2="293.2" stroke="#172033"/>
<line x1="1386.7" y1="176.2" x2="1394.7" y2="176.2" stroke="#172033"/>
<line x1="1386.7" y1="293.2" x2="1394.7" y2="293.2" stroke="#172033"/>
<text class="tick" x="1390.7" y="520" text-anchor="end" transform="rotate(-48 1390.7 520)">Trace judge</text>
<rect x="1419.6" y="176.2" width="20" height="321.8" rx="2" fill="#2563eb" opacity=".88"/>
<line x1="1429.6" y1="137.2" x2="1429.6" y2="225.0" stroke="#172033"/>
<line x1="1425.6" y1="137.2" x2="1433.6" y2="137.2" stroke="#172033"/>
<line x1="1425.6" y1="225.0" x2="1433.6" y2="225.0" stroke="#172033"/>
<text class="tick" x="1429.6" y="520" text-anchor="end" transform="rotate(-48 1429.6 520)">Trace rules</text>
<rect x="490" y="591" width="12" height="12" rx="2" fill="#64748b"/>
<text class="small" x="508" y="601">Baseline</text>
<rect x="660" y="591" width="12" height="12" rx="2" fill="#dc2626"/>
<text class="small" x="678" y="601">Active</text>
<rect x="830" y="591" width="12" height="12" rx="2" fill="#2563eb"/>
<text class="small" x="848" y="601">Passive</text>
<text class="small" x="28" y="630">Bars show exact method-level means; “passive” merges behavioral and observational subclasses only for the paper grouping.</text>
</svg>
