<svg xmlns="http://www.w3.org/2000/svg" width="1180" height="650" viewBox="0 0 1180 650" role="img" aria-label="Rank and scalar-implied firing rates">
<style>
text{font-family:Inter,ui-sans-serif,system-ui,-apple-system,BlinkMacSystemFont,'Segoe UI',sans-serif;fill:#172033}
.title{font-size:25px;font-weight:700;letter-spacing:-.3px}
.subtitle{font-size:13px;fill:#596579}
.axis{font-size:12px;fill:#657188}
.label{font-size:13px;font-weight:600}
.value{font-size:11px;font-weight:650}
.note{font-size:11px;fill:#657188}
</style>
<rect width="100%" height="100%" fill="#ffffff"/>
<text class="title" x="34" y="38">Rank target versus scalar-threshold firing</text>
<text class="subtitle" x="34" y="61">Luna · Evolving-Intent GSM8K · task-level maximum over actionable checkpoints</text>
<line x1="34" y1="79" x2="1146" y2="79" stroke="#e6eaf0"/>
<circle cx="365" cy="96" r="5" fill="#2563eb"/>
<text class="axis" x="376" y="100">Intended rank policy</text>
<circle cx="525" cy="96" r="5" fill="#d97706"/>
<text class="axis" x="536" y="100">Calibration, scalar ≥ cutoff</text>
<rect x="735" y="91" width="10" height="10" rx="2" fill="#dc2626"/>
<text class="axis" x="752" y="100">Deployment pass one, scalar ≥ cutoff</text>
<line x1="292.0" y1="112" x2="292.0" y2="584.0" stroke="#e8ebf1" stroke-width="1"/>
<text class="axis" x="292.0" y="605.0" text-anchor="middle">0%</text>
<line x1="455.6" y1="112" x2="455.6" y2="584.0" stroke="#9db7ea" stroke-width="1.6"/>
<text class="axis" x="455.6" y="605.0" text-anchor="middle">20%</text>
<line x1="619.2" y1="112" x2="619.2" y2="584.0" stroke="#e8ebf1" stroke-width="1"/>
<text class="axis" x="619.2" y="605.0" text-anchor="middle">40%</text>
<line x1="782.8" y1="112" x2="782.8" y2="584.0" stroke="#e8ebf1" stroke-width="1"/>
<text class="axis" x="782.8" y="605.0" text-anchor="middle">60%</text>
<line x1="946.4" y1="112" x2="946.4" y2="584.0" stroke="#e8ebf1" stroke-width="1"/>
<text class="axis" x="946.4" y="605.0" text-anchor="middle">80%</text>
<line x1="1110.0" y1="112" x2="1110.0" y2="584.0" stroke="#e8ebf1" stroke-width="1"/>
<text class="axis" x="1110.0" y="605.0" text-anchor="middle">100%</text>
<rect x="28" y="101.0" width="1118" height="54" rx="7" fill="#f8fafc"/>
<text class="label" x="42" y="133.0">Active recompute (carry)</text>
<line x1="1110.0" y1="128.0" x2="1110.0" y2="128.0" stroke="#cbd2dd" stroke-width="2"/>
<circle cx="455.6" cy="114.0" r="5.5" fill="#2563eb"/>
<text class="value" x="464.6" y="118.0" fill="#1d4ed8">20.0%</text>
<circle cx="1110.0" cy="128.0" r="5.5" fill="#d97706"/>
<text class="value" x="1101.0" y="132.0" text-anchor="end" fill="#a85e05">100.0%</text>
<rect x="1104.5" y="136.5" width="11" height="11" rx="2" fill="#dc2626"/>
<text class="value" x="1101.0" y="146.0" text-anchor="end" fill="#b91c1c">100.0%</text>
<text class="label" x="42" y="197.0">Frozen recompute</text>
<line x1="1110.0" y1="192.0" x2="1110.0" y2="192.0" stroke="#cbd2dd" stroke-width="2"/>
<circle cx="455.6" cy="178.0" r="5.5" fill="#2563eb"/>
<text class="value" x="464.6" y="182.0" fill="#1d4ed8">20.0%</text>
<circle cx="1110.0" cy="192.0" r="5.5" fill="#d97706"/>
<text class="value" x="1101.0" y="196.0" text-anchor="end" fill="#a85e05">100.0%</text>
<rect x="1104.5" y="200.5" width="11" height="11" rx="2" fill="#dc2626"/>
<text class="value" x="1101.0" y="210.0" text-anchor="end" fill="#b91c1c">100.0%</text>
<rect x="28" y="229.0" width="1118" height="54" rx="7" fill="#f8fafc"/>
<text class="label" x="42" y="261.0">Frozen quiz</text>
<line x1="823.7" y1="256.0" x2="1048.7" y2="256.0" stroke="#cbd2dd" stroke-width="2"/>
<circle cx="455.6" cy="242.0" r="5.5" fill="#2563eb"/>
<text class="value" x="464.6" y="246.0" fill="#1d4ed8">20.0%</text>
<circle cx="823.7" cy="256.0" r="5.5" fill="#d97706"/>
<text class="value" x="832.7" y="260.0" text-anchor="start" fill="#a85e05">65.0%</text>
<rect x="1043.2" y="264.5" width="11" height="11" rx="2" fill="#dc2626"/>
<text class="value" x="1039.7" y="274.0" text-anchor="end" fill="#b91c1c">92.5%</text>
<text class="label" x="42" y="325.0">Trace judge</text>
<line x1="435.1" y1="320.0" x2="455.6" y2="320.0" stroke="#cbd2dd" stroke-width="2"/>
<circle cx="455.6" cy="306.0" r="5.5" fill="#2563eb"/>
<text class="value" x="464.6" y="310.0" fill="#1d4ed8">20.0%</text>
<circle cx="455.6" cy="320.0" r="5.5" fill="#d97706"/>
<text class="value" x="464.6" y="324.0" text-anchor="start" fill="#a85e05">20.0%</text>
<rect x="429.6" y="328.5" width="11" height="11" rx="2" fill="#dc2626"/>
<text class="value" x="444.1" y="338.0" text-anchor="start" fill="#b91c1c">17.5%</text>
<rect x="28" y="357.0" width="1118" height="54" rx="7" fill="#f8fafc"/>
<text class="label" x="42" y="389.0">Trace rules</text>
<line x1="1110.0" y1="384.0" x2="1110.0" y2="384.0" stroke="#cbd2dd" stroke-width="2"/>
<circle cx="455.6" cy="370.0" r="5.5" fill="#2563eb"/>
<text class="value" x="464.6" y="374.0" fill="#1d4ed8">20.0%</text>
<circle cx="1110.0" cy="384.0" r="5.5" fill="#d97706"/>
<text class="value" x="1101.0" y="388.0" text-anchor="end" fill="#a85e05">100.0%</text>
<rect x="1104.5" y="392.5" width="11" height="11" rx="2" fill="#dc2626"/>
<text class="value" x="1101.0" y="402.0" text-anchor="end" fill="#b91c1c">100.0%</text>
<text class="label" x="42" y="453.0">Turn clock</text>
<line x1="1110.0" y1="448.0" x2="1110.0" y2="448.0" stroke="#cbd2dd" stroke-width="2"/>
<circle cx="455.6" cy="434.0" r="5.5" fill="#2563eb"/>
<text class="value" x="464.6" y="438.0" fill="#1d4ed8">20.0%</text>
<circle cx="1110.0" cy="448.0" r="5.5" fill="#d97706"/>
<text class="value" x="1101.0" y="452.0" text-anchor="end" fill="#a85e05">100.0%</text>
<rect x="1104.5" y="456.5" width="11" height="11" rx="2" fill="#dc2626"/>
<text class="value" x="1101.0" y="466.0" text-anchor="end" fill="#b91c1c">100.0%</text>
<rect x="28" y="485.0" width="1118" height="54" rx="7" fill="#f8fafc"/>
<text class="label" x="42" y="517.0">Context use</text>
<line x1="455.6" y1="512.0" x2="517.0" y2="512.0" stroke="#cbd2dd" stroke-width="2"/>
<circle cx="455.6" cy="498.0" r="5.5" fill="#2563eb"/>
<text class="value" x="464.6" y="502.0" fill="#1d4ed8">20.0%</text>
<circle cx="455.6" cy="512.0" r="5.5" fill="#d97706"/>
<text class="value" x="464.6" y="516.0" text-anchor="start" fill="#a85e05">20.0%</text>
<rect x="511.5" y="520.5" width="11" height="11" rx="2" fill="#dc2626"/>
<text class="value" x="526.0" y="530.0" text-anchor="start" fill="#b91c1c">27.5%</text>
<line x1="292.0" y1="584.0" x2="1110.0" y2="584.0" stroke="#8993a4"/>
<text class="note" x="34" y="632">Rank selection fixes the count (4/20 calibration; 8/40 deployment). Scalar implication counts every task whose maximum score is ≥ the stored numeric cutoff.</text>
</svg>
