<?xml version="1.0" encoding="UTF-8"?>
<svg xmlns="http://www.w3.org/2000/svg" width="408" height="340" viewBox="0 0 408 340" role="img" aria-labelledby="figure-title figure-desc" data-axis-min="-10000.0" data-axis-max="10000.0">
<title id="figure-title">Observer resource effect: active_recompute / task tokens</title>
<desc id="figure-desc">Small multiples show paired task-level active-minus-clean effects by model and benchmark. A vertical zero line marks no observer effect.</desc>
<defs><style>
      text { font-family: Inter, ui-sans-serif, system-ui, -apple-system, sans-serif; fill: #222222; }
      .title { font-size: 20px; font-weight: 700; }
      .subtitle { font-size: 12px; fill: #666666; }
      .panel-title { font-size: 14px; font-weight: 700; }
      .label { font-size: 11px; }
      .small { font-size: 10px; fill: #666666; }
      .axis { stroke: #222222; stroke-width: 1; fill: none; }
      .grid { stroke: #D9D9D9; stroke-width: 1; fill: none; }
      .zero-line { stroke: #222222; stroke-width: 1.6; stroke-dasharray: 5 4; fill: none; }
    </style></defs>
<text x="24" y="32" class="title">Observer resource effect: active_recompute / task tokens</text>
<text x="24" y="52" class="subtitle">Paired task bootstrap; points are active minus clean, bars are confidence intervals.</text>
<text x="204.0" y="60" text-anchor="middle" class="panel-title">evolving_intent_gsm8k</text>
<line x1="136.00" y1="74" x2="136.00" y2="248" class="grid"/>
<text x="136.00" y="266" text-anchor="middle" class="small">-10000.0</text>
<line x1="192.50" y1="74" x2="192.50" y2="248" class="grid"/>
<text x="192.50" y="266" text-anchor="middle" class="small">-5000.0</text>
<line x1="249.00" y1="74" x2="249.00" y2="248" class="zero-line"/>
<text x="249.00" y="266" text-anchor="middle" class="small">+0.0</text>
<line x1="305.50" y1="74" x2="305.50" y2="248" class="grid"/>
<text x="305.50" y="266" text-anchor="middle" class="small">+5000.0</text>
<line x1="362.00" y1="74" x2="362.00" y2="248" class="grid"/>
<text x="362.00" y="266" text-anchor="middle" class="small">+10000.0</text>
<text x="128" y="94" text-anchor="end" class="label">deepseek-v4-flash-0731 <tspan class="small">n=5</tspan></text>
<line x1="240.74" y1="90" x2="248.74" y2="90" stroke="#0072B2" stroke-width="3"/>
<line x1="240.74" y1="85" x2="240.74" y2="95" stroke="#0072B2"/><line x1="248.74" y1="85" x2="248.74" y2="95" stroke="#0072B2"/>
<circle cx="245.32" cy="90" r="5" fill="#0072B2" stroke="white" stroke-width="1.5"><title>deepseek-v4-flash-0731: -325.6 [-730.8, -22.9]</title></circle>
<text x="128" y="128" text-anchor="end" class="label">gpt-5.6-luna <tspan class="small">n=5</tspan></text>
<line x1="260.66" y1="124" x2="266.43" y2="124" stroke="#0072B2" stroke-width="3"/>
<line x1="260.66" y1="119" x2="260.66" y2="129" stroke="#0072B2"/><line x1="266.43" y1="119" x2="266.43" y2="129" stroke="#0072B2"/>
<circle cx="263.34" cy="124" r="5" fill="#0072B2" stroke="white" stroke-width="1.5"><title>gpt-5.6-luna: +1268.6 [+1032.2, +1542.8]</title></circle>
<text x="128" y="162" text-anchor="end" class="label">gpt-5.6-terra <tspan class="small">n=5</tspan></text>
<line x1="259.70" y1="158" x2="264.93" y2="158" stroke="#0072B2" stroke-width="3"/>
<line x1="259.70" y1="153" x2="259.70" y2="163" stroke="#0072B2"/><line x1="264.93" y1="153" x2="264.93" y2="163" stroke="#0072B2"/>
<circle cx="262.54" cy="158" r="5" fill="#0072B2" stroke="white" stroke-width="1.5"><title>gpt-5.6-terra: +1198.6 [+947.2, +1409.4]</title></circle>
<text x="128" y="196" text-anchor="end" class="label">gpt-oss-120b <tspan class="small">n=5</tspan></text>
<line x1="224.57" y1="192" x2="248.66" y2="192" stroke="#0072B2" stroke-width="3"/>
<line x1="224.57" y1="187" x2="224.57" y2="197" stroke="#0072B2"/><line x1="248.66" y1="187" x2="248.66" y2="197" stroke="#0072B2"/>
<circle cx="238.35" cy="192" r="5" fill="#0072B2" stroke="white" stroke-width="1.5"><title>gpt-oss-120b: -942.8 [-2162.2, -29.8]</title></circle>
<text x="128" y="230" text-anchor="end" class="label">qwen3p7-plus <tspan class="small">n=5</tspan></text>
<line x1="243.61" y1="226" x2="312.66" y2="226" stroke="#0072B2" stroke-width="3"/>
<line x1="243.61" y1="221" x2="243.61" y2="231" stroke="#0072B2"/><line x1="312.66" y1="221" x2="312.66" y2="231" stroke="#0072B2"/>
<circle cx="271.41" cy="226" r="5" fill="#0072B2" stroke="white" stroke-width="1.5"><title>qwen3p7-plus: +1983.4 [-476.8, +5633.4]</title></circle>
<line x1="136" y1="248" x2="362" y2="248" class="axis"/>
<text x="204.0" y="318" text-anchor="middle" class="label">Task Tokens difference (active carried − clean), tokens; positive is extra burden</text>
</svg>
